<?xml version="1.0" encoding="utf-8"?><svg viewBox="0 0 70 96" xmlns="http://www.w3.org/2000/svg" xmlns:xlink="http://www.w3.org/1999/xlink"><style>:root>svg{display:none}:root>svg:target{display:block}</style><svg fill="none" viewBox="0 0 59 69" id="club_residence" xmlns="http://www.w3.org/2000/svg"><g clip-path="url(#aclip0)"><path d="M17.217 32.392h-6.819v-.47h6.347v-20.93h.06v-.47h.412v21.87zM50.293 32.392h-6.819v-21.87h.45v.47h.022v20.93h6.347v.47z" fill="#DDD"/><path d="M17.217 10.925h-9.95V8.89h9.95v2.034zm-9.479-.47h9.002V9.369H7.738v1.086zM53.425 10.925h-9.951V8.89h9.95v2.034zm-9.49-.47h9.001V9.369h-9.001v1.086zM21.369 13.252h-.472V8.885h5.949v.47h-5.477v3.897zM21.369 18.792h-.472v-4.367h5.949v.467h-5.477v3.9zM21.369 24.329h-.472v-4.367h5.949v.47h-5.477v3.897z" fill="#DDD"/><path d="M19.427 7.498v22.001h1.707v-.47h-1.238V7.969h8.573V29.03h-5.832l-.622.47h6.926V7.497h-9.514z" fill="#DDD"/><path d="M21.369 30.034h-.472V25.5h5.949v.47h-5.477v4.065zM34.148 13.252h-.472V8.885h5.947v.47h-5.475v3.897zM34.148 18.792h-.472v-4.367h5.947v.467h-5.475v3.9zM34.148 24.329h-.472v-4.367h5.947v.47h-5.475v3.897z" fill="#DDD"/><path d="M31.884 7.498v22.001h2.027v-.47h-1.558V7.969h8.573V29.03h-5.51l-.622.47h6.604V7.497h-9.514z" fill="#DDD"/><path d="M34.148 30.034h-.472V25.5h5.947v.47h-5.475v4.065zM10.9 25.486h-.472v6.653h.472v-6.653zM50.29 25.486h-.471v6.653h.471v-6.653zM10.9 10.87h-.472v6.822h.472V10.87zM50.29 10.705h-.471v6.99h.471v-6.99z" fill="#DDD"/><path d="M10.54 17.247H1.664v.448h8.876v-.448zM58.92 17.247h-8.875v.448h8.876v-.448zM36.005 4.687v.467h7.469v26.768H17.217V5.154h18.941v-.467H16.745v27.704h27.2V4.687h-7.94z" fill="#DDD"/><path d="M24.448 4.913V-.011H36.24v4.913l-11.792.01zm11.32.024V.47H24.92v4.478" fill="#DDD"/><path d="M8.592 39.59c2.199 0 4.536.73 6.14 2.306l-1.854 3.011c-1.056-.912-2.636-1.667-4.092-1.667-3.273 0-4.637 2.306-4.637 4.655 0 2.416 1.467 4.904 4.637 4.904 1.636 0 3.23-.89 4.364-2.007l2.062 2.92a8.966 8.966 0 01-6.598 2.737c-5.27 0-8.592-3.628-8.592-8.465C0 43.24 3.527 39.59 8.592 39.59zM17.343 39.864h4.012v12.889h6.688v3.421h-10.7v-16.31zM29.672 39.864h4.01v10.32c0 1.71 1.12 2.623 2.84 2.623 1.718 0 2.841-.913 2.841-2.623v-10.32h4.01v10.32c0 3.671-2.703 6.273-6.82 6.273-4.17 0-6.873-2.602-6.873-6.273l-.008-10.32zM46.742 39.864h6.025c3.273 0 5.567 1.462 5.567 4.267a3.976 3.976 0 01-1.909 3.468v.046c1.88.57 2.567 2.234 2.567 3.671 0 3.557-2.979 4.858-6.233 4.858h-6.017v-16.31zm6.072 6.32c1.006 0 1.443-.73 1.443-1.505 0-.774-.437-1.393-1.514-1.393h-1.989v2.898h2.06zm.343 6.569a1.643 1.643 0 001.256-.467 1.629 1.629 0 00.485-1.244c0-.913-.546-1.665-1.719-1.665h-2.425v3.376h2.403z" fill="#C79205"/><path d="M.45 61.307h2.646c.5-.035 1.001.026 1.478.179.86.329 1.402 1.103 1.402 2.202 0 .815-.382 1.681-1.137 2.064v.02c.105.145.2.298.286.455l1.479 2.645H4.53l-1.35-2.55h-.87v2.55H.45v-7.565zm2.668 3.43a.874.874 0 00.913-.556.862.862 0 00.052-.376c0-.383-.095-.668-.444-.815a1.813 1.813 0 00-.704-.103H2.31v1.841l.808.009zM7.624 61.307h4.763v1.588H9.483v1.375H11.8v1.588H9.484v1.429h3.05v1.585h-4.91v-7.565zM14.31 66.52a3.064 3.064 0 001.827.786c.521 0 .788-.234.788-.53 0-1.07-3.36-.899-3.36-3.259 0-1.398 1.16-2.319 2.755-2.319a3.613 3.613 0 012.381.858l-.788 1.513a2.754 2.754 0 00-1.68-.665c-.562 0-.819.23-.819.543 0 1.086 3.36.814 3.36 3.218 0 1.27-.946 2.36-2.7 2.36a3.945 3.945 0 01-2.755-1.087l.99-1.417zM20.144 61.307h1.86v7.566h-1.86v-7.566zM23.78 61.307h2.698c2.392 0 3.922 1.388 3.922 3.766 0 2.38-1.53 3.802-3.922 3.802h-2.7l.002-7.568zm2.627 5.974c1.285 0 2.073-.763 2.073-2.213 0-1.45-.819-2.172-2.073-2.172h-.767v4.39l.767-.005zM31.794 61.307h4.776v1.588h-2.916v1.375h2.319v1.588h-2.319v1.429h3.052v1.585h-4.91l-.002-7.565zM38.076 61.307h1.882l2.106 3.53c.235.419.448.85.638 1.29h.02s-.086-.815-.086-1.29v-3.53h1.86v7.566h-1.87l-2.114-3.53c-.236-.42-.449-.852-.639-1.293h-.03s.085.814.085 1.292v3.53h-1.86l.008-7.565zM49.854 61.18a4.102 4.102 0 012.85 1.069l-.859 1.396a3.11 3.11 0 00-1.91-.771c-1.519 0-2.146 1.067-2.146 2.158 0 1.092.682 2.276 2.147 2.276a3.007 3.007 0 002.021-.931l.957 1.358a4.143 4.143 0 01-3.063 1.27c-2.455 0-3.985-1.68-3.985-3.926.003-2.205 1.64-3.9 3.988-3.9zM54.044 61.307h4.76v1.588h-2.9v1.375h2.316v1.588h-2.316v1.429h3.05v1.585h-4.91v-7.565z" fill="#FDFBFB"/></g><defs><clipPath id="aclip0"><path fill="#fff" d="M0 0h59v69H0z"/></clipPath></defs></svg><svg fill="none" viewBox="0 0 66 46" id="comfort_life" xmlns="http://www.w3.org/2000/svg"><g clip-path="url(#bclip0)" fill="#DDD"><path d="M2.583 36.998c-.391.008-.78-.06-1.144-.203a2.23 2.23 0 01-.813-.562 2.321 2.321 0 01-.466-.84A3.306 3.306 0 010 34.348c.001-.322.055-.64.16-.944.1-.313.258-.603.466-.855a2.463 2.463 0 011.957-.864h.466c.138-.007.277.006.411.038.131.037.257.042.383.07l.388.1c.009.174.027.347.056.519.03.205.073.412.126.623a.275.275 0 01-.126.033.35.35 0 01-.112 0 .104.104 0 01-.065-.085 1.29 1.29 0 00-.468-.741 1.485 1.485 0 00-.84-.222 2.145 2.145 0 00-.854.16 1.728 1.728 0 00-.621.44c-.177.197-.311.43-.392.684-.09.287-.134.587-.131.888-.005.34.048.68.159 1.001.099.286.247.551.438.784.177.214.397.388.645.51.246.12.516.181.789.18.19.007.38-.012.565-.057.14-.037.27-.103.382-.194.104-.087.191-.193.257-.312.076-.14.142-.288.196-.439a.191.191 0 01.187-.118h.084l.065.029c-.06.184-.126.387-.186.604a6.48 6.48 0 00-.154.66c-.256.042-.516.075-.78.1a16.03 16.03 0 01-.868.057zM6.042 34.344a2.742 2.742 0 01.724-1.88c.22-.24.485-.435.78-.575.29-.14.61-.213.933-.213.404-.007.805.066 1.181.217a2.337 2.337 0 011.33 1.417c.11.324.165.664.164 1.006.007.381-.062.76-.2 1.114a2.388 2.388 0 01-1.401 1.355 2.876 2.876 0 01-1.023.18c-.346.004-.69-.06-1.013-.19a2.258 2.258 0 01-.789-.537 2.46 2.46 0 01-.513-.841 3.077 3.077 0 01-.173-1.053zm2.675 2.267a1.564 1.564 0 001.19-.534c.158-.171.282-.372.365-.59.082-.243.123-.499.121-.756a4.48 4.48 0 00-.121-1.053 2.623 2.623 0 00-.374-.845 1.744 1.744 0 00-.597-.562c-.26-.14-.551-.21-.845-.203-.21 0-.418.041-.612.123-.194.08-.369.201-.514.354-.154.165-.274.36-.354.571a2.132 2.132 0 00-.131.78c-.002.364.04.727.126 1.08.073.307.196.6.364.865.152.238.359.435.602.576.24.132.508.198.78.194zM17.849 31.936l.037-.061a.116.116 0 01.066-.048l.126-.028a1.46 1.46 0 01.22 0h.844a.695.695 0 010 .128c0 .084-.028.127-.08.132a.924.924 0 00-.373.108.209.209 0 00-.093.18v.208c-.002.224.01.447.033.67.032.312.037.727.06 1.247.024.52.052 1.166.084 1.936a.277.277 0 00.103.222.974.974 0 00.383.118.085.085 0 01.06.042.178.178 0 010 .085.696.696 0 010 .128l-.494-.029h-1.317a.696.696 0 010-.127c0-.085.028-.128.08-.128.146-.023.289-.066.424-.127a.223.223 0 00.113-.213v-.292a4.889 4.889 0 00-.033-.652c-.033-.255-.028-.534-.038-.836-.009-.302-.028-.58-.037-.845-.01-.264 0-.472-.033-.685-.032-.212 0-.307 0-.35l-1.727 4.137a.53.53 0 01-.06.109.089.089 0 01-.075.033h-.07l-1.905-4.424v.382c.004.24-.007.48-.033.718-.033.274-.028.571-.042.883-.014.311-.028.594-.042.859-.014.265 0 .472-.033.661a2.23 2.23 0 000 .283c0 .16.176.274.528.34.051 0 .08.048.08.128a.696.696 0 010 .127l-.412-.028h-.695l-.397.029a.696.696 0 010-.128c0-.076.028-.113.08-.128.096-.022.188-.057.275-.103a.276.276 0 00.145-.227v-.397c-.005-.26.008-.52.037-.779.037-.302.028-.618.042-.944l.042-.944c.014-.298 0-.525.033-.709v-.283a.205.205 0 00-.098-.184 1.221 1.221 0 00-.37-.11c-.05 0-.079-.046-.079-.131a.714.714 0 010-.128h.934a1.46 1.46 0 01.22 0l.126.029c.026.007.05.024.065.047l.037.061 1.667 3.929 1.592-3.89zM21.71 32.36a.23.23 0 00-.121-.221 1.646 1.646 0 00-.43-.118.066.066 0 01-.065-.043.24.24 0 010-.09.714.714 0 010-.127l.5.029h2.581c.182 0 .308-.024.374-.024.065 0 .107.042.13.132.03.102.05.206.061.312.009.129.027.257.056.382.017.122.053.24.108.35a.117.117 0 01-.061.042h-.098a.123.123 0 01-.074-.015.128.128 0 01-.052-.056 3.308 3.308 0 00-.182-.363.94.94 0 00-.201-.246.714.714 0 00-.266-.137 1.488 1.488 0 00-.388-.042h-1.134v2.077h1.158a.226.226 0 00.224-.15c.05-.119.085-.243.107-.369a.126.126 0 01.14-.104.512.512 0 01.126 0c0 .133-.01.265-.028.397v.713c-.004.145.007.29.033.434a.456.456 0 01-.117 0 .22.22 0 01-.103 0 .094.094 0 01-.047-.085 1.394 1.394 0 00-.102-.363.231.231 0 00-.224-.156h-1.158v1.827c0 .104.066.175.201.217.153.045.309.078.467.1.06 0 .093.051.093.137a.664.664 0 010 .132h-1.61l-.467.028a.714.714 0 010-.127c0-.08.028-.123.08-.128.137-.031.273-.072.405-.123a.219.219 0 00.15-.217l-.066-4.004zM26.341 34.344c-.003-.356.063-.71.197-1.039.13-.306.313-.586.54-.826a2.55 2.55 0 01.767-.59c.292-.14.61-.213.933-.213.404-.007.806.066 1.182.217.306.127.583.319.81.562.228.244.402.534.51.85.11.324.165.664.164 1.006a2.92 2.92 0 01-.2 1.114 2.392 2.392 0 01-.557.83c-.242.234-.53.413-.844.526a2.876 2.876 0 01-1.023.179c-.346.004-.69-.06-1.013-.189a2.254 2.254 0 01-.789-.538 2.46 2.46 0 01-.513-.84 3.083 3.083 0 01-.164-1.049zm2.675 2.267a1.563 1.563 0 001.191-.534c.149-.176.263-.38.336-.6.083-.242.124-.498.121-.755a4.439 4.439 0 00-.116-1.053 2.619 2.619 0 00-.355-.836 1.743 1.743 0 00-.598-.562c-.26-.14-.55-.21-.845-.203-.21 0-.417.041-.611.123-.194.08-.369.201-.514.354-.154.165-.275.36-.355.571a2.131 2.131 0 00-.13.78c-.003.364.04.727.126 1.08.071.307.193.599.36.865.148.234.35.43.588.571.244.14.522.21.803.203v-.004zM35.145 34.604h-.574v1.733a.23.23 0 00.159.236c.15.051.308.084.467.099.06 0 .093.056.093.137a.664.664 0 010 .132l-.509-.028h-1.055l-.5.028a.696.696 0 010-.127c0-.076.028-.114.084-.128.144-.017.284-.055.416-.113a.238.238 0 00.121-.227v-3.985a.255.255 0 00-.112-.227 1.135 1.135 0 00-.439-.113c-.05 0-.079-.047-.079-.132a.647.647 0 010-.128l.467.029H35.2a1.88 1.88 0 011.27.373 1.269 1.269 0 01.41.996c0 .123-.019.246-.055.364a1.423 1.423 0 01-.49.703c-.14.11-.299.194-.467.25l1.298 1.828c.081.122.194.22.326.283.11.049.221.088.337.118.046 0 .07.047.07.109a.713.713 0 010 .141l-.434-.028h-.467a.518.518 0 01-.332-.142 1.77 1.77 0 01-.317-.363l-1.205-1.818zm-.163-.321c.297.019.593-.062.84-.232a.975.975 0 00.294-.817 1.51 1.51 0 00-.06-.448.903.903 0 00-.197-.354.934.934 0 00-.359-.236 1.497 1.497 0 00-.541-.086h-.388v2.173h.41zM41.55 32.11v4.203a.267.267 0 00.15.255c.16.064.328.102.5.114.056 0 .084.042.084.127a.712.712 0 010 .132l-.523-.028H40.65l-.532.028a.622.622 0 010-.132c0-.076.028-.113.079-.127.172-.018.342-.057.504-.119a.253.253 0 00.154-.25v-4.202h-.803a1.384 1.384 0 00-.392.047.75.75 0 00-.275.142.844.844 0 00-.201.245c-.056.1-.117.217-.177.345a.093.093 0 01-.052.056h-.065a.235.235 0 01-.15-.047c.052-.189.089-.354.117-.505l.07-.368c.015-.076.037-.15.066-.222a.116.116 0 01.112-.08h4.23c.024 0 .049.008.07.023.02.015.034.037.041.061.029.076.05.153.066.232.014.124.036.247.065.368.029.16.07.318.122.472l-.075.033a.199.199 0 01-.084 0h-.07a.098.098 0 01-.035-.021.098.098 0 01-.022-.035 3.287 3.287 0 00-.172-.345.865.865 0 00-.196-.245.719.719 0 00-.271-.142 1.374 1.374 0 00-.392-.047l-.831.033zM48.937 36.337a.193.193 0 00.117.189c.1.041.209.06.317.056h.85a1.14 1.14 0 00.387-.061.796.796 0 00.28-.17c.082-.08.151-.173.206-.274a2.26 2.26 0 00.158-.368.094.094 0 01.103-.043.2.2 0 01.084 0l.09.043a10.119 10.119 0 00-.192 1.095.14.14 0 01-.047.109.187.187 0 01-.093 0h-.332a3.312 3.312 0 00-.345 0h-2.433l-.523.028a.662.662 0 010-.127c0-.076.029-.114.08-.128.15-.019.296-.06.434-.123a.22.22 0 00.117-.208v-3.994a.244.244 0 00-.108-.227 1.271 1.271 0 00-.42-.113.085.085 0 01-.06-.043.174.174 0 010-.085.768.768 0 010-.132l.522.029h.995l.527-.029a.696.696 0 010 .128c0 .088-.028.135-.084.141-.17.014-.336.052-.495.114a.272.272 0 00-.158.273l.023 3.92zM54.156 36.355a.223.223 0 00.107.218c.13.058.266.1.406.123.052 0 .08.051.08.127a.696.696 0 010 .127l-.468-.028h-.933l-.467.029a.696.696 0 010-.128c0-.076.028-.113.08-.127.14-.02.276-.06.406-.118a.231.231 0 00.107-.223v-3.994a.244.244 0 00-.107-.227c-.128-.06-.266-.099-.406-.113a.074.074 0 01-.061-.047.232.232 0 010-.085.696.696 0 010-.128l.467.029h.933l.495-.029a.647.647 0 010 .128c0 .08-.028.122-.08.132-.14.014-.277.052-.406.113a.238.238 0 00-.107.227l-.046 3.995zM56.98 32.36a.227.227 0 00-.121-.221 1.65 1.65 0 00-.43-.118.066.066 0 01-.065-.043.236.236 0 010-.09.647.647 0 010-.127l.5.029h2.581c.182 0 .308-.024.373-.024.066 0 .108.042.131.132.03.102.05.206.061.312.009.129.027.257.056.382.017.122.053.24.107.35a.117.117 0 01-.06.042h-.08a.12.12 0 01-.126-.07 3.326 3.326 0 00-.182-.364.934.934 0 00-.2-.246.71.71 0 00-.267-.137 1.476 1.476 0 00-.387-.042h-1.158v2.077h1.158a.225.225 0 00.22-.15c.047-.12.081-.243.102-.369a.126.126 0 01.14-.104.51.51 0 01.126 0c.004.133-.006.266-.028.397-.014.13-.014.261 0 .392v.32c-.004.146.007.292.033.435a.456.456 0 01-.117 0 .225.225 0 01-.102 0 .092.092 0 01-.047-.085 1.363 1.363 0 00-.103-.363.23.23 0 00-.224-.156h-1.158v1.827c0 .104.066.175.2.217.154.045.31.078.468.1.06 0 .093.051.093.137a.712.712 0 010 .132h-1.61l-.467.028a.617.617 0 010-.127c0-.08.028-.123.079-.128.138-.032.274-.072.406-.123a.214.214 0 00.111-.083.22.22 0 00.038-.134l-.051-4.004zM63.086 32.11v2.017H64.3a.229.229 0 00.224-.156c.05-.12.086-.245.108-.373a.128.128 0 01.05-.08.125.125 0 01.09-.024h.121c.004.131-.006.263-.028.392a1.753 1.753 0 000 .387v.326c-.004.146.007.291.033.434h-.117a.135.135 0 01-.15-.103 1.764 1.764 0 00-.107-.373.227.227 0 00-.224-.151h-1.214v1.855c0 .109.07.184.21.222.228.045.46.064.691.057h.44a.982.982 0 00.686-.246 1.28 1.28 0 00.228-.269 3.67 3.67 0 00.196-.345c0-.037.056-.056.117-.056.028 0 .055.009.08.023l.084.047a1.825 1.825 0 00-.122.36l-.098.396c-.026.109-.06.216-.098.321-.034.088-.076.132-.126.132h-3.119l-.467.029a.714.714 0 010-.128c0-.076.028-.113.08-.127a1.85 1.85 0 00.425-.118.224.224 0 00.13-.222V32.36a.22.22 0 00-.112-.217c-.14-.06-.288-.1-.438-.123-.052 0-.08-.057-.08-.132a.457.457 0 010-.066.392.392 0 010-.062l.56.033h2.54l.34-.023c.066 0 .113.042.136.132.028.102.048.206.06.311.01.13.028.26.057.388a.946.946 0 00.117.344.226.226 0 01-.14.047.129.129 0 01-.131-.07 4.398 4.398 0 00-.178-.35.896.896 0 00-.2-.24.718.718 0 00-.271-.142 1.388 1.388 0 00-.392-.047l-1.205-.034zM17.153 45.762v-1.795h.588a.896.896 0 01.654.236 1.013 1.013 0 010 1.318.895.895 0 01-.654.24h-.588zm.247-.218h.341a.65.65 0 00.467-.179.678.678 0 00.177-.505.627.627 0 00-.33-.629.61.61 0 00-.24-.065h-.429l.014 1.378zM20.342 45.752v-1.785h1.05v.199h-.779v.562h.63v.217h-.63v.576h.78v.217l-1.05.014zM23.577 45.752l-.644-1.79h.266l.439 1.262.07.245c.017-.083.039-.165.065-.245l.467-1.261h.261l-.644 1.79h-.28zM26.112 45.762v-1.794h1.032v.198h-.785v.562h.635v.217h-.635v.576h.826v.217l-1.073.024zM28.885 45.752v-1.79h.247v1.573h.794v.217h-1.041zM31.332 44.846a.956.956 0 01.18-.8.938.938 0 01.73-.354.925.925 0 01.73.355.948.948 0 01.18.799.955.955 0 01-.18.799.93.93 0 01-1.135.262.935.935 0 01-.505-.641.956.956 0 010-.42zm.256 0a.723.723 0 00.187.505.646.646 0 00.934 0 .724.724 0 00.187-.505.684.684 0 00-.187-.472.659.659 0 00-.934 0 .683.683 0 00-.191.472h.004zM34.865 45.752v-1.79h.649a.542.542 0 01.401.151.547.547 0 01.154.407.56.56 0 01-.154.41.541.541 0 01-.397.156h-.401v.661l-.252.005zm.247-.879h.37a.337.337 0 00.251-.094.355.355 0 00.094-.255.338.338 0 00-.094-.25.342.342 0 00-.252-.109h-.364l-.005.709zM37.657 45.752l.16-1.785h.256l.406.945.084.24c.033-.094.061-.174.089-.24l.406-.944h.257l.14 1.784h-.238l-.084-1.114v-.264l-.094.264-.355.803h-.219l-.35-.803-.093-.27c.005.09.005.18 0 .27l-.084 1.124-.28-.01zM41.215 45.733v-1.765h1.017v.198h-.765v.567h.626v.212h-.626v.566h.812v.213l-1.064.01zM43.993 45.752v-1.785h.243l.789 1.143.144.26v-1.417h.243v1.785h-.243l-.789-1.157-.144-.26v1.417l-.243.014zM47.648 45.747v-1.581h-.607v-.218h1.457v.218h-.607v1.562l-.243.02zM41.691 7.91v-.99L38.853 5.78l-1.97-.77v9.51h-.654V4.257l2.624 1.02V4.7l-2.624-1.232-.784-1.04h-5.098l-.785 1.04L26.94 4.7v.576l2.623-1.02v10.266h-.649v-9.51l-1.974.77L24.1 6.918v.992l-4.804 1.275v12.031l8.198 3.518h4.608v-2.29h1.588v2.318h4.593l8.198-3.517V9.18l-4.79-1.27zm-4.253.969V7.807l6.938 1.54v.58l-6.387-1.09v10.61l-.55.165V8.879zm6.938 1.7v7.942l-2.708.803V10.22l2.708.359zm-3.572-.472v9.443l-1.554.473V9.903l1.554.204zM30.893 3.32h4.01l.411.945h-4.832l.41-.945zm2.003 13.141h-1.868v-1.525h3.698v1.525h-1.83zm1.867.916v1.526h-3.697v-1.526h3.697zm-1.522-3.352h-2.175V6.423c0-.373.401-.613 1.522-.613h.653c1.12 0 1.522.24 1.522.613v7.603h-1.522zm-11.806-4.67l6.937-1.549v11.805l-.551-.16V8.841l-6.387 1.1v-.586zm5.135 10.676l-1.555-.472v-9.444l1.555-.203v10.119zm-5.136-9.444l2.708-.359v9.1l-2.707-.803v-7.938zm-1.69-.85l1.032-.226v8.83l-1.032-.307V9.738zm26.34 11.021l-7.768 3.202h-3.544v-2.692l-1.867-.566-1.867.566v2.692h-3.544l-7.768-3.202v-2.092l7.768 2.48h2.853v-.473l2.572-.76 2.563.746v.472h2.801l7.787-2.465.014 2.092zm0-2.73l-1.031.308v-8.83l1.031.227v8.296zM34.464 2.024L33.647.488c-.466 0-.592-.236-.737-.236-.145 0-.262.236-.738.236l-.817 1.535h3.11zM55.165 40.506h-44.64v.047h44.64v-.047z"/></g><defs><clipPath id="bclip0"><path fill="#fff" transform="translate(0 .188)" d="M0 0h66v45.812H0z"/></clipPath></defs></svg><svg fill="none" viewBox="0 0 70 96" id="home_club" xmlns="http://www.w3.org/2000/svg"><path d="M9.694 40.979c.018 0 .026.026.026.08 0 .052-.008.079-.026.079H7.908a.54.54 0 01-.318-.093c-.088-.07-.243-.251-.463-.543-.22-.29-.6-.82-1.138-1.587l-.159-.225c-.38-.538-.657-.913-.834-1.125a1.558 1.558 0 00-.555-.463c-.186-.089-.433-.133-.741-.133h-.12v3.097c0 .264.027.463.08.595a.445.445 0 00.304.252c.159.044.402.066.728.066.018 0 .026.026.026.08 0 .052-.008.079-.026.079-.291 0-.52-.005-.688-.014l-.993-.013-.926.014c-.159.008-.384.013-.675.013-.017 0-.026-.027-.026-.08 0-.053.009-.08.026-.08.327 0 .565-.021.715-.065a.445.445 0 00.304-.252c.062-.132.093-.33.093-.595v-6.127c0-.265-.027-.459-.08-.582a.445.445 0 00-.304-.252c-.15-.053-.388-.08-.715-.08-.017 0-.026-.026-.026-.078 0-.053.009-.08.026-.08l.675.013c.37.018.675.027.913.027.265 0 .6-.009 1.006-.027l.675-.013c.018 0 .026.027.026.08 0 .052-.008.079-.026.079-.318 0-.556.026-.715.08a.526.526 0 00-.317.277c-.053.124-.08.318-.08.582v2.793c.477-.018.772-.027.887-.027h.172l1.535-2.13c.38-.52.57-.913.57-1.178 0-.265-.208-.397-.623-.397-.018 0-.026-.027-.026-.08 0-.052.008-.079.026-.079l.582.013c.353.018.675.027.966.027.318 0 .644-.009.98-.027l.502-.013c.027 0 .04.027.04.08 0 .052-.013.079-.04.079a2.32 2.32 0 00-1.243.37c-.397.248-.79.618-1.178 1.112l-1.773 2.25c.264.026.485.101.661.225.186.114.366.282.543.502.176.212.467.6.873 1.165.424.6.759 1.05 1.006 1.35.247.3.503.538.767.714.265.168.56.256.887.265zm.836.318c-.212 0-.38-.049-.503-.146-.124-.088-.185-.22-.185-.397 0-.326.198-.49.595-.49h.278c.494 0 .918-.313 1.27-.94.362-.626.631-1.406.808-2.341.185-.936.277-1.853.277-2.753 0-.423-.088-.728-.264-.913-.168-.194-.512-.291-1.032-.291-.027 0-.04-.027-.04-.08 0-.052.013-.079.04-.079h6.444c.018 0 .026.027.026.08 0 .052-.008.079-.026.079-.326 0-.569.026-.728.08a.49.49 0 00-.317.25c-.053.124-.08.318-.08.583v6.127c0 .264.027.463.08.595a.49.49 0 00.317.252c.159.044.402.066.728.066.018 0 .026.026.026.08 0 .052-.008.079-.026.079-.282 0-.507-.005-.675-.014l-.94-.013-.979.014c-.158.008-.388.013-.688.013-.017 0-.026-.027-.026-.08 0-.053.009-.08.026-.08.335 0 .578-.021.728-.065a.445.445 0 00.305-.252c.052-.123.079-.322.079-.595v-6.034c0-.3-.018-.499-.053-.596-.026-.097-.097-.159-.212-.185-.106-.027-.326-.04-.662-.04h-.727c-.265 0-.463.022-.596.066a.476.476 0 00-.29.278c-.063.141-.093.366-.093.675 0 .909-.089 1.906-.265 2.99-.168 1.086-.468 2.039-.9 2.86-.432.81-1.006 1.217-1.72 1.217zm16.353-8.43c.026 0 .04.027.04.08 0 .052-.014.079-.04.079-.238 0-.472.097-.702.291-.229.185-.419.441-.569.768l-2.805 6.206c-.159.353-.34.609-.543.767-.194.16-.445.239-.754.239-.291 0-.534-.067-.728-.199a.612.612 0 01-.29-.53c0-.158.052-.295.158-.41a.545.545 0 01.437-.185c.167 0 .29.044.37.133.088.088.168.211.238.37.044.106.089.19.133.252.044.052.101.079.172.079.088 0 .172-.044.251-.133.08-.088.163-.233.252-.436l.37-.82-2.898-5.453c-.194-.352-.37-.595-.53-.727-.15-.142-.352-.212-.608-.212-.018 0-.026-.027-.026-.08 0-.052.008-.079.026-.079l.477.013c.264.018.533.027.807.027.414 0 .816-.009 1.204-.027.132-.008.295-.013.49-.013.026 0 .04.027.04.08 0 .052-.014.079-.04.079-.574 0-.86.145-.86.437 0 .097.039.22.118.37l2.33 4.394 1.879-4.182a.965.965 0 00.105-.437c0-.388-.33-.582-.992-.582-.027 0-.04-.027-.04-.08 0-.052.013-.079.04-.079l.556.013c.317.018.6.027.847.027.158 0 .353-.009.582-.027l.503-.013zm3.72 3.6c.936 0 1.686.176 2.25.529.565.353.847.913.847 1.68a2.42 2.42 0 01-1.337 2.197 3.181 3.181 0 01-1.442.318c-.238 0-.516-.014-.833-.04a25.698 25.698 0 00-.477-.027 12.754 12.754 0 00-.608-.013l-.927.014c-.167.008-.392.013-.674.013-.027 0-.04-.027-.04-.08 0-.053.013-.08.04-.08.317 0 .55-.021.7-.065a.445.445 0 00.305-.252c.053-.132.08-.33.08-.595v-6.127c0-.265-.027-.459-.08-.582a.445.445 0 00-.304-.252c-.141-.053-.37-.08-.688-.08-.018 0-.027-.026-.027-.078 0-.053.01-.08.027-.08h5.32c.079 0 .127.013.145.04.026.026.04.084.04.172l.158 1.786c0 .027-.026.044-.079.053-.044 0-.07-.013-.08-.04-.105-.555-.313-.983-.621-1.283-.3-.3-.67-.45-1.112-.45h-.688c-.273 0-.476.026-.609.08a.439.439 0 00-.278.25c-.053.124-.079.305-.079.543v2.515a9.777 9.777 0 011.072-.066zm.067 4.459c.662 0 1.142-.159 1.442-.476.31-.318.464-.794.464-1.43 0-.794-.203-1.367-.61-1.72-.396-.353-.97-.53-1.72-.53-.255 0-.493.018-.714.054v3.242c0 .291.075.507.225.648.159.141.463.212.913.212zm13.303.053c.027 0 .04.026.04.08 0 .052-.013.079-.04.079-.282 0-.507-.005-.675-.014l-.952-.013-1.046.014c-.15.008-.357.013-.622.013-.026 0-.04-.027-.04-.08 0-.053.014-.08.04-.08.336 0 .583-.021.741-.065.16-.044.265-.128.318-.252.053-.132.08-.33.08-.595v-3.083h-4.818v3.083c0 .264.027.463.08.595.053.124.159.208.318.252.158.044.405.066.74.066.018 0 .027.026.027.08 0 .052-.009.079-.026.079-.283 0-.508-.005-.675-.014l-1.02-.013-.939.014c-.167.008-.397.013-.688.013-.018 0-.026-.027-.026-.08 0-.053.008-.08.026-.08.326 0 .565-.021.715-.065.159-.044.264-.128.317-.252.062-.132.093-.33.093-.595v-6.127c0-.265-.027-.459-.08-.582a.445.445 0 00-.304-.252c-.15-.053-.388-.08-.714-.08-.027 0-.04-.026-.04-.078 0-.053.013-.08.04-.08l.674.013c.371.018.68.027.927.027.282 0 .626-.009 1.032-.027l.662-.013c.017 0 .026.027.026.08 0 .052-.009.079-.026.079-.327 0-.57.026-.728.08a.528.528 0 00-.331.277c-.053.124-.08.318-.08.582v2.713h4.817v-2.712c0-.265-.03-.46-.092-.583a.482.482 0 00-.318-.278c-.15-.053-.392-.08-.728-.08-.026 0-.04-.026-.04-.078 0-.053.014-.08.04-.08l.622.013c.406.018.755.027 1.046.027.247 0 .564-.009.952-.027l.675-.013c.027 0 .04.027.04.08 0 .052-.013.079-.04.079-.326 0-.564.026-.714.08a.489.489 0 00-.318.25c-.053.124-.08.318-.08.583v6.127c0 .264.027.463.08.595a.489.489 0 00.318.252c.15.044.388.066.714.066zm4.615-4.512c1.817 0 2.726.723 2.726 2.17 0 .502-.119.948-.357 1.336-.23.388-.556.688-.98.9a3.181 3.181 0 01-1.442.318c-.22 0-.485-.014-.794-.04a18.47 18.47 0 00-1.164-.04l-.86.014c-.177.008-.41.013-.702.013-.026 0-.04-.027-.04-.08 0-.053.014-.08.04-.08.327-.008.56-.03.702-.065a.44.44 0 00.29-.252c.063-.123.093-.322.093-.595v-6.127c0-.273-.026-.468-.08-.582a.44.44 0 00-.29-.252c-.141-.044-.375-.07-.701-.08-.018 0-.027-.026-.027-.078 0-.053.009-.08.026-.08l.636.013c.388.018.701.027.94.027.264 0 .6-.009 1.005-.027l.688-.013c.018 0 .027.027.027.08 0 .052-.01.079-.027.079-.335.009-.582.035-.741.08a.482.482 0 00-.318.264c-.061.123-.092.322-.092.596v2.633a8.845 8.845 0 011.442-.132zm-.304 4.459c.679 0 1.164-.159 1.455-.476.3-.327.45-.834.45-1.522 0-.768-.163-1.32-.49-1.654-.326-.336-.82-.503-1.481-.503-.318 0-.675.035-1.072.106v3.189c0 .291.075.507.225.648.15.141.454.212.913.212zm5.888-.86c0 .264.027.463.08.595a.44.44 0 00.29.252c.15.044.385.066.702.066.018 0 .027.026.027.08 0 .052-.01.079-.027.079-.282 0-.503-.005-.661-.014l-.953-.013-.927.014c-.167.008-.397.013-.688.013-.017 0-.026-.027-.026-.08 0-.053.009-.08.026-.08.318 0 .552-.021.702-.065a.445.445 0 00.304-.252c.053-.132.08-.33.08-.595v-6.127c0-.265-.027-.459-.08-.582a.445.445 0 00-.304-.252c-.15-.053-.384-.08-.702-.08-.017 0-.026-.026-.026-.078 0-.053.009-.08.026-.08l.688.013c.389.018.697.027.927.027.256 0 .578-.009.966-.027l.648-.013c.018 0 .027.027.027.08 0 .052-.01.079-.027.079-.309 0-.538.026-.688.08a.48.48 0 00-.304.277c-.053.124-.08.318-.08.582v6.1zm11.133.913c.018 0 .027.026.027.08 0 .052-.01.079-.027.079-.29 0-.52-.005-.688-.014l-.953-.013-1.032.014c-.159.008-.37.013-.635.013-.026 0-.04-.027-.04-.08 0-.053.014-.08.04-.08.335 0 .582-.021.741-.065.159-.044.265-.128.318-.252.053-.132.08-.33.08-.595v-5.307l-4.659 4.963v.344c0 .264.027.463.08.595.052.124.158.208.317.252.159.044.406.066.741.066.018 0 .027.026.027.08 0 .052-.01.079-.027.079-.282 0-.507-.005-.675-.014l-1.019-.013-.94.014c-.167.008-.396.013-.687.013-.018 0-.027-.027-.027-.08 0-.053.009-.08.027-.08.326 0 .564-.021.714-.065.159-.044.265-.128.318-.252.062-.132.093-.33.093-.595v-6.127c0-.265-.027-.459-.08-.582a.445.445 0 00-.304-.252c-.15-.053-.388-.08-.715-.08-.026 0-.04-.026-.04-.078 0-.053.014-.08.04-.08l.675.013c.37.018.68.027.926.027.283 0 .627-.009 1.032-.027l.662-.013c.018 0 .027.027.027.08 0 .052-.01.079-.027.079-.326 0-.569.026-.728.08a.528.528 0 00-.33.277c-.053.124-.08.318-.08.582v5.294l4.658-4.976v-.318c0-.264-.03-.458-.093-.582a.482.482 0 00-.317-.278c-.15-.053-.393-.08-.728-.08-.026 0-.04-.026-.04-.078 0-.053.014-.08.04-.08l.635.013c.406.018.75.027 1.032.027.247 0 .565-.009.953-.027l.688-.013c.018 0 .027.027.027.08 0 .052-.01.079-.027.079-.326 0-.564.026-.714.08a.489.489 0 00-.318.25c-.053.124-.08.318-.08.583v6.127c0 .264.027.463.08.595a.489.489 0 00.318.252c.15.044.388.066.714.066zm-4.499-8.906c.424 0 .72-.269.887-.807.07-.23.14-.397.211-.503.071-.106.19-.159.358-.159.14 0 .247.04.317.12.08.079.12.185.12.317 0 .212-.089.415-.265.609-.177.185-.41.335-.702.45a2.65 2.65 0 01-.913.158c-.317 0-.622-.057-.913-.172a1.946 1.946 0 01-.688-.45c-.176-.185-.265-.383-.265-.595a.46.46 0 01.106-.318c.08-.079.19-.119.331-.119.177 0 .3.053.37.16.071.105.142.273.212.502.062.238.155.432.278.582.133.15.318.225.556.225zM1.208 66.532h.811c.54 0 1.081-.221 1.622-.663.54-.46 1.048-1.188 1.524-2.188.442-.933.786-2.056 1.032-3.366.246-1.311.442-3.277.59-5.898l.32-5.284L4.5 48.05v-.565h14.377v.54l-2.286.345v18.161h2.114l.368 6.021h-.737l-2.556-5.406H4.132l-2.555 5.406H.839l.369-6.02zm12.68 0V48.101H7.844l-.393 6.316c-.18 2.703-.393 4.726-.639 6.07-.246 1.327-.581 2.474-1.007 3.44a7.621 7.621 0 01-.836 1.475c-.279.376-.532.663-.762.86-.23.196-.344.287-.344.27H13.89zm16.769 1.106c-1.786 0-3.384-.434-4.793-1.303-1.408-.868-2.506-2.08-3.293-3.637-.786-1.572-1.18-3.367-1.18-5.382 0-2.015.394-3.8 1.18-5.357.787-1.573 1.885-2.794 3.293-3.662 1.41-.868 3.007-1.302 4.793-1.302s3.383.434 4.792 1.302c1.409.869 2.507 2.09 3.293 3.662.786 1.556 1.18 3.342 1.18 5.357s-.394 3.81-1.18 5.382c-.786 1.557-1.884 2.77-3.293 3.637-1.41.869-3.006 1.303-4.792 1.303zm0-.565c1.18 0 2.236-.311 3.17-.934.95-.623 1.696-1.524 2.236-2.703.541-1.196.811-2.605.811-4.227v-3.785c0-1.622-.27-3.023-.81-4.202-.541-1.196-1.287-2.106-2.237-2.728-.934-.623-1.99-.934-3.17-.934-1.196 0-2.261.311-3.195.934-.934.622-1.671 1.532-2.212 2.728-.54 1.18-.81 2.58-.81 4.202v3.785c0 1.622.27 3.03.81 4.227.54 1.18 1.278 2.08 2.212 2.703.934.623 1.999.934 3.195.934zm21.806.32L45.139 48.37v17.276l2.36.983v.517h-5.26v-.517l2.31-.983V48.371l-2.26-.344v-.54h5.43l6.169 15.777 6.291-15.778h4.964v.54l-2.26.345v17.89l2.26.37v.516h-7.225v-.517l2.261-.368V49.108l-7.274 18.284h-.442z" fill="#DDD"/><path d="M32.664 57.647a1.89 1.89 0 11-3.78 0 1.89 1.89 0 013.78 0z" fill="#A68E52"/></svg><svg fill="none" viewBox="0 0 70 28" id="logo_smart_orange" xmlns="http://www.w3.org/2000/svg"><g opacity=".7"><path d="M27.593 12.96h.279c.03.605.288 1.104.783 1.486.495.382 1.113.584 1.855.584.722 0 1.32-.191 1.784-.574.464-.382.69-.87.69-1.464 0-.467-.154-.839-.474-1.125-.32-.287-.835-.52-1.556-.7l-.938-.245c-.763-.191-1.32-.457-1.67-.775-.35-.318-.526-.743-.526-1.252 0-.627.258-1.157.763-1.582.505-.424 1.123-.637 1.835-.637.752 0 1.38.202 1.896.605.516.404.784.903.804 1.497h-.278c-.03-.52-.268-.955-.732-1.306-.453-.35-1.02-.52-1.69-.52-.65 0-1.196.18-1.64.552-.453.372-.67.828-.67 1.39 0 .446.155.797.475 1.073.32.276.825.498 1.525.679l.928.233c.773.202 1.35.468 1.7.796.362.33.537.765.537 1.295a2.08 2.08 0 01-.773 1.667c-.515.435-1.175.647-2 .647s-1.505-.223-2.051-.658c-.536-.424-.835-.987-.856-1.666zM42.035 6.804v8.374h-.279V7.472h-.02l-3.288 7.706h-.3L34.86 7.472h-.02v7.706h-.279V6.804h.3l3.432 8.013h.02l3.412-8.013h.31zM49.384 15.178l-1.062-2.908H44.54l-1.082 2.908h-.31l3.135-8.374h.288l3.134 8.374h-.32zm-2.968-7.982l-1.773 4.798h3.576l-1.773-4.798h-.03zM51.085 11.516v3.662h-.288V6.804h2.525c.814 0 1.453.212 1.917.626.464.424.701.998.701 1.73 0 .616-.175 1.125-.515 1.528-.34.404-.825.67-1.433.775l2.144 3.715h-.32l-2.123-3.672c-.134.01-.258.01-.371.01h-2.237zm0-4.447v4.182h2.237c.721 0 1.299-.191 1.711-.563.412-.371.618-.88.618-1.528 0-.658-.206-1.168-.618-1.54-.412-.37-.99-.551-1.721-.551h-2.227zM59.898 15.178h-.278V7.08h-2.938v-.276h6.144v.276h-2.938l.01 8.098zM31.243 16.027c1.092 0 1.968.393 2.607 1.168.65.774.97 1.825.97 3.141 0 1.317-.32 2.367-.97 3.142-.649.775-1.515 1.168-2.618 1.168s-1.968-.393-2.618-1.168c-.65-.775-.969-1.826-.969-3.142 0-1.316.32-2.356.97-3.141.649-.786 1.514-1.168 2.628-1.168zm0 .265c-1.01 0-1.815.361-2.412 1.094-.598.721-.897 1.709-.897 2.94 0 1.231.299 2.207.896 2.94.598.732 1.402 1.093 2.413 1.093 1 0 1.804-.36 2.401-1.093.598-.732.897-1.709.897-2.94 0-1.232-.299-2.208-.897-2.94-.597-.722-1.402-1.094-2.401-1.094zM36.448 20.857v3.662h-.288v-8.375h2.525c.814 0 1.453.212 1.917.626.464.425.701.998.701 1.73 0 .616-.175 1.125-.515 1.529-.35.403-.825.669-1.433.775l2.144 3.715h-.32l-2.123-3.673c-.134.01-.258.01-.371.01h-2.237zm0-4.448v4.182h2.237c.722 0 1.299-.19 1.711-.562.413-.372.619-.881.619-1.529 0-.658-.206-1.167-.619-1.539-.412-.371-.99-.552-1.721-.552h-2.227zM48.426 24.518l-1.061-2.908h-3.783L42.51 24.52h-.31l3.134-8.375h.289l3.133 8.375h-.33zm-2.958-7.981l-1.783 4.797h3.576l-1.772-4.797h-.021zM50.127 24.518h-.289v-8.374h.31l5.4 7.823h.021v-7.823h.279v8.375h-.258l-5.443-7.887h-.02v7.886zM63.939 21.239c0 1.05-.289 1.878-.866 2.483-.577.605-1.37.903-2.37.903-.681 0-1.29-.18-1.825-.552-.536-.361-.949-.881-1.237-1.54-.3-.657-.443-1.422-.443-2.27 0-1.274.32-2.304.969-3.079.639-.775 1.494-1.167 2.546-1.167.804 0 1.494.233 2.082.69.587.456.948 1.05 1.103 1.793h-.279a2.742 2.742 0 00-1.03-1.602c-.526-.404-1.155-.605-1.876-.605-.97 0-1.753.36-2.34 1.093-.588.732-.876 1.688-.876 2.887 0 1.21.298 2.197.896 2.95.598.754 1.371 1.136 2.33 1.136.917 0 1.639-.276 2.165-.828.525-.551.793-1.316.793-2.271v-.584h-2.989v-.265h3.268v.828h-.021zM70 24.243v.276h-4.659v-8.375h4.66v.276H65.63v3.672h4.175v.266H65.63v3.895H70v-.01z" fill="#DDD"/><path d="M23.8 18.065l-.103-.594 1.227-2.303-1.185-1.954.463-1.199-1.133-.902-.155-2.441-2.227-1.03-.412-.987-.66-.223-.979-1.603-2.072.096-1.752-1.603-1.598.563-.515-.287-1.268.637-2.443-.541-.98 1.061-.67-.095-.958 1.517-2.721.881-.577 2.516-.485.371-.03.563-.248.244.02.34L.69 12.949l.722 1.964-.598 1.146.629 1.146-.423 1.922 1.65 1.73.185 1.518 1.062.54.742 2.325 2.505.446.845 1.125 1.206-.042 1.474 1.114 1.907-.743 2.133.86.918-.807.825.17 1.35-1.55 2.412-.297.629-1.624.453-.201.413-1.37 2.175-1.496-.268-2.494.164-.266z" fill="#727376"/><path d="M21.244 20.358l-.536 1.104 1.072-2.42-.536 1.316z" fill="#898A8D"/><path d="M17.45 25.134l-.752.308 2.144-1.613-1.392 1.305z" fill="#A0A1A3"/><path d="M23.202 13.894l-.907-2.93.825 1.55.082 1.38z" fill="#8D8E91"/><path d="M7.514 25.209l-.794-.457 2.628.966-1.834-.51z" fill="#6C6E70"/><path d="M23.8 18.065l-.783 1.178.557-2.632.227 1.454z" fill="#F2F2F2"/><path d="M2.34 11.951l-.021-1.199 1.309-1.316L2.34 11.95z" fill="#E5E5E5"/><path d="M18.482 24.943l1.711-.976 1.124-.276-2.835 1.252z" fill="#A0A0A0"/><path d="M21.316 23.69l-1.123.277 1.69-2.155-.567 1.879z" fill="#CCC"/><path d="M18.894 6.305l1.381.35.66 1.582-2.04-1.932z" fill="#D8D8D8"/><path d="M17.368 5.668l2.907.987-1.381-.35-1.526-.637z" fill="#F2F2F2"/><path d="M2.773 20.475L4.4 23.149l-1.546-.774-.082-1.9z" fill="#999"/><path d="M2.772 20.475l.082 1.9-.433-3.397.35 1.497z" fill="#A5A5A5"/><path d="M16.472 27.363l-2.886-.616 1.855.085 1.031.531z" fill="#BFBFBF"/><path d="M16.472 27.363l-1.03-.53 2.525-1.179-1.495 1.71z" fill="#D8D8D8"/><path d="M1.794 17.418l.629 1.56-1.608-2.919.979 1.359z" fill="#BFBFBF"/><path d="M1.567 14.584l.227 2.834-.98-1.359.753-1.475z" fill="#D8D8D8"/><path d="M13.585 26.747l-2.896 1.136 1.958-.87.938-.266z" fill="#CCC"/><path d="M14.812 3.322l2.556 2.346-1.01-.732-1.546-1.614zM24.924 15.168l-1.36-1.497-.433-1.444 1.793 2.94z" fill="#E5E5E5"/><path d="M23.564 13.67l-.866-2.865.433 1.422.433 1.444z" fill="#808183"/><path d="M23.13 12.227l-.432-1.422.216-2.133.217 3.555z" fill="#D8D8D8"/><path d="M10.689 27.883l-1.082-1.39 3.04.52-1.958.87zM10.688 27.883l-2.7-2.048 1.618.658 1.082 1.39z" fill="#999"/><path d="M8.493 5.031l-1.639.998 2.134-2.335-.495 1.337z" fill="#F2F2F2"/><path d="M8.988 3.694l2.907.647-.918.106-1.99-.753z" fill="#F2F2F2"/><path d="M8.494 5.031l.495-1.337 1.989.753-2.484.584z" fill="#E5E5E5"/><path d="M13.637 4.33l1.175-1.008 1.546 1.614-2.721-.605z" fill="#F2F2F2"/><path d="M11.895 4.341l1.742-.01-2.66.116.918-.106z" fill="#9C9EA0"/><path d="M11.895 4.341l2.917-1.019-1.175 1.009-1.742.01z" fill="#E5E5E5"/><path d="M6.081 6.634l.773-.605 1.64-.998L6.08 6.634z" fill="#B9B9BA"/><path d="M6.08 6.634l-2.421.424 3.195-1.03-.773.606z" fill="#E5E5E5"/><path d="M24.924 15.168l-1.402 1.05.041-2.547 1.361 1.497z" fill="#F2F2F2"/><path d="M23.563 17.747l-.04-1.529 1.401-1.05-1.36 2.579z" fill="#E5E5E5"/><path d="M15.441 26.832l1.66-.934.866-.244-2.526 1.178z" fill="#BFBFBF"/><path d="M1.742 15.857l.051 1.56-.227-2.833.176 1.273z" fill="#A5A5A5"/><path d="M7.988 25.835l-1.164-.637 2.783 1.295-1.619-.658z" fill="#6E6F72"/><path d="M7.988 25.835l-3.33-.595 2.165-.042 1.165.637z" fill="#999"/><path d="M3.865 9.107l-.206-2.049 2.422-.424-2.216 2.473z" fill="#F2F2F2"/><path d="M3.865 9.107l-1.01 1.39.804-3.439.206 2.049zM20.234 7.44l2.68 1.232-1.69.265-.99-1.497z" fill="#E5E5E5"/><path d="M21.223 8.937l1.69-.265-.216 2.133-1.474-1.868z" fill="#F2F2F2"/><path d="M9.607 26.493l1.824.19 1.216.33-3.04-.52z" fill="#CCC"/><path d="M23.904 20.825l-.98-2.41.64-.668.34 3.078z" fill="#D8D8D8"/><path d="M22.925 18.415l.598-2.197.04 1.529-.638.668z" fill="#CCC"/><path d="M2.515 11.74l.34-1.243 1.01-1.39-1.35 2.632z" fill="#B9BABA"/><path d="M2.515 11.74L.69 12.95l2.165-2.453-.34 1.242z" fill="#F2F2F2"/><path d="M13.637 4.33l2.721.606-.917.148-1.804-.753z" fill="#CCC"/><path d="M15.441 5.084l.918-.148 2.278-.107-3.196.255z" fill="#F2F2F2"/><path d="M8.494 5.031l2.484-.584-.752.605-1.732-.02z" fill="#CCC"/><path d="M3.865 9.107L6.08 6.634l-.722 1.178-1.494 1.295z" fill="#E5E5E5"/><path d="M4.844 22.895l1.98 2.303-2.165.042.185-2.345z" fill="#A5A5A5"/><path d="M4.844 22.895l-.186 2.345-1.082-3.417 1.268 1.072z" fill="#B2B2B2"/><path d="M23.904 20.825l-2.062-.18 1.083-2.23.979 2.41z" fill="#E5E5E5"/><path d="M21.368 22.576l.474-1.931 2.062.18-2.536 1.751z" fill="#F2F2F2"/><path d="M23.564 13.671l-.567.478 1.206-2.134-.64 1.656z" fill="#CCC"/><path d="M23.522 16.218l-.525-2.07.567-.477-.042 2.547z" fill="#D8D8D8"/><path d="M22.09 11.166l.607-.36 1.505 1.21-2.113-.85z" fill="#E5E5E5"/><path d="M22.09 11.166l2.112.85-1.206 2.133-.907-2.983z" fill="#F2F2F2"/><path d="M21.223 8.937l1.474 1.868-.608.361-.866-2.229z" fill="#CCC"/><path d="M2.515 11.74l-.227 2.546L.69 12.95l1.825-1.21z" fill="#D8D8D8"/><path d="M2.288 14.287l-.546 1.57L.69 12.95l1.598 1.338z" fill="#B2B2B2"/><path d="M20.234 7.44l.99 1.497-1.732-1.284.742-.213z" fill="#CCC"/><path d="M18.636 4.83l1.598 2.61-.742.213-.856-2.824z" fill="#E5E5E5"/><path d="M10.225 5.052l.752-.605 1.722-.849-2.474 1.454zM20.234 25.516l.082-2.93 1.052-.01-1.134 2.94z" fill="#D8D8D8"/><path d="M20.316 22.587l1.526-1.942-.474 1.931-1.052.01z" fill="#E5E5E5"/><path d="M14.73 28l-3.3-1.316 2.021-.446L14.73 28z" fill="#A5A5A5"/><path d="M14.73 28l-1.279-1.762 2.7-.754L14.73 28z" fill="#CCC"/><path d="M14.73 28l1.422-2.516.948.414L14.73 28z" fill="#E5E5E5"/><path d="M17.1 25.898l1.227-1.655 1.907 1.273-3.134.382z" fill="#CCC"/><path d="M20.234 25.516l-1.907-1.273 1.99-1.656-.083 2.93z" fill="#E5E5E5"/><path d="M16.152 25.484l2.175-1.242-1.227 1.656-.948-.414z" fill="#D8D8D8"/><path d="M3.391 19.986l.185 1.837-2.556-2.696 2.371.86z" fill="#B2B2B2"/><path d="M4.844 22.895l-1.268-1.072-.185-1.837 1.453 2.909zM2.546 17.014l.845 2.972-2.37-.86 1.525-2.112z" fill="#999"/><path d="M2.546 17.014l-.804-1.157.546-1.57.258 2.727z" fill="#D8D8D8"/><path d="M2.546 17.014L1.02 19.127l.722-3.27.804 1.157zM17.255 6.634l1.381-1.805.856 2.824-2.237-1.02z" fill="#F2F2F2"/><path d="M15.441 5.084l3.196-.255-1.382 1.805-1.814-1.55z" fill="#E5E5E5"/><path d="M7.41 7.037l-2.05.775L7.339 4.66l.072 2.377z" fill="#D8D8D8"/><path d="M11.431 26.684l-3.422.127 2.495-1.072.927.945z" fill="#A5A5A5"/><path d="M11.431 26.684l-.928-.945 2.948.5-2.02.445zM6.648 23.68l.175 1.518-1.98-2.303 1.805.785z" fill="#999"/><path d="M6.648 23.68l1.36 3.131-1.185-1.613-.175-1.518z" fill="#BFBFBF"/><path d="M7.411 7.037L7.34 4.66l2.598 1.443-2.526.934z" fill="#E5E5E5"/><path d="M7.339 4.66l2.886.392-.288 1.051L7.339 4.66zM2.598 9.945l.752 2.887-.835-1.093.083-1.794z" fill="#D8D8D8"/><path d="M3.35 12.832l-1.062 1.454.227-2.547.834 1.093z" fill="#BFBFBF"/><path d="M15.441 5.084l1.815 1.55-2.423-.5.608-1.05z" fill="#CCC"/><path d="M12.699 3.598l2.742 1.486-.609 1.05L12.7 3.599z" fill="#D8D8D8"/><path d="M5.298 9.425l.062-1.613 2.051-.775-2.113 2.388z" fill="#F2F2F2"/><path d="M5.298 9.425l-2.7.52L5.36 7.812l-.062 1.613z" fill="#D8D8D8"/><path d="M10.225 5.052l2.474-1.454-.413 2.388-2.061-.934z" fill="#F2F2F2"/><path d="M12.286 5.986l.413-2.388 2.133 2.537-2.546-.149z" fill="#E5E5E5"/><path d="M10.226 5.052l2.061.934-2.35.117.289-1.05zM22.09 11.166l.907 2.983-1.474-1.157.567-1.826z" fill="#E5E5E5"/><path d="M21.523 12.992l1.474 1.156.65 2.145-2.124-3.301z" fill="#CCC"/><path d="M21.842 20.644l-.186-2.409 1.268.18-1.082 2.23z" fill="#D8D8D8"/><path d="M22.924 18.416l-1.268-.181 1.99-1.942-.722 2.123z" fill="#F2F2F2"/><path d="M19.492 7.653l1.732 1.284.226.223-1.958-1.507z" fill="#E5E5E5"/><path d="M21.45 9.16l.64 2.006-.568 1.826-.072-3.832z" fill="#D8D8D8"/><path d="M8.73 24.02L8.01 26.81l-1.36-3.13 2.081.339z" fill="#A5A5A5"/><path d="M8.73 24.02l1.774 1.72-2.495 1.071.722-2.791z" fill="#BFBFBF"/><path d="M17.255 6.634l2.237 1.019-.804 1.082-1.433-2.101z" fill="#E5E5E5"/><path d="M18.688 8.735l.803-1.082L21.45 9.16l-2.762-.425z" fill="#F2F2F2"/><path d="M13.451 26.238l1.062-1.539 1.639.785-2.701.754z" fill="#D8D8D8"/><path d="M13.451 26.238l-1.01.35 2.072-1.889-1.062 1.539z" fill="#E5E5E5"/><path d="M4.113 18.203l-.722 1.783-.845-2.972 1.567 1.19z" fill="#BFBFBF"/><path d="M4.865 11.835l-1.515.997-.752-2.887 2.267 1.89z" fill="#CCC"/><path d="M5.298 9.425l-.433 2.41-2.267-1.89 2.7-.52z" fill="#E5E5E5"/><path d="M18.327 24.243l.31-2.219 1.68.563-1.99 1.656z" fill="#D8D8D8"/><path d="M21.522 12.992l2.123 3.3-2.917-1.263.794-2.037z" fill="#F2F2F2"/><path d="M20.728 15.03l2.917 1.263-1.989 1.942-.928-3.205zM7.411 7.037l2.526-.934-.67 1.879-1.856-.945z" fill="#D8D8D8"/><path d="M21.522 12.992l-.793 2.037-1.031-3.407 1.824 1.37z" fill="#CCC"/><path d="M21.45 9.16l.072 3.832-1.824-1.37L21.45 9.16z" fill="#F2F2F2"/><path d="M18.688 8.735l2.762.425-1.752 2.462-1.01-2.887z" fill="#D8D8D8"/><path d="M4.216 21.759l2.432 1.921-1.803-.785-.63-1.136zM4.112 18.203l.103 3.556-.824-1.773.721-1.783z" fill="#A5A5A5"/><path d="M11.462 24.168l.98 2.42-1.939-.849.959-1.57z" fill="#B2B2B2"/><path d="M11.462 24.168l-.959 1.571-1.773-1.72 2.732.15z" fill="#999"/><path d="M11.462 24.168l3.051.531-2.072 1.89-.979-2.42z" fill="#D8D8D8"/><path d="M2.463 15.22l1.65 2.983-1.567-1.189-.083-1.793z" fill="#B2B2B2"/><path d="M3.35 12.832l-.887 2.389-.175-.934 1.061-1.455z" fill="#F2F2F2"/><path d="M2.463 15.22l.082 1.794-.257-2.727.175.934z" fill="#A5A5A5"/><path d="M6.412 7.653l1-.616 1.855.945-2.855-.33z" fill="#E5E5E5"/><path d="M20.317 22.587l-1.68-.563 2.556-1.274-.877 1.837z" fill="#CCC"/><path d="M21.842 20.644l-.65.107.465-2.516.185 2.41z" fill="#CCC"/><path d="M20.316 22.587l.876-1.836.65-.107-1.526 1.943zM12.286 5.986l2.546.149-.793 1.486-1.753-1.635z" fill="#D8D8D8"/><path d="M7.545 21.886l-.897 1.794-2.432-1.921 3.33.127z" fill="#BFBFBF"/><path d="M8.73 24.02l-2.082-.34.897-1.794L8.73 24.02z" fill="#999"/><path d="M7.08 10.455l-2.215 1.38.432-2.41 1.784 1.03zM6.412 7.653l2.855.329-2.185 2.473-.67-2.802z" fill="#D8D8D8"/><path d="M6.411 7.653l.67 2.802-1.783-1.03 1.113-1.772z" fill="#E5E5E5"/><path d="M16.152 25.484l-1.639-.785 2.65-.255-1.01 1.04zM18.327 24.243l-1.165.201 1.474-2.42-.31 2.219z" fill="#BFBFBF"/><path d="M16.152 25.484l1.01-1.04 1.165-.201-2.175 1.241z" fill="#E5E5E5"/><path d="M5.225 14.074L3.35 12.832l1.516-.997.36 2.24z" fill="#BFBFBF"/><path d="M5.226 14.074l-2.763 1.147.887-2.389 1.876 1.242z" fill="#E5E5E5"/><path d="M14.039 7.62l.793-1.485 2.124 1.061-2.917.425z" fill="#F2F2F2"/><path d="M14.833 6.135l2.423.499-.3.562-2.123-1.061z" fill="#D8D8D8"/><path d="M16.956 7.196l.299-.562 1.433 2.101-1.732-1.539z" fill="#CCC"/><path d="M20.729 15.03l.928 3.205-2.248-1.072 1.32-2.133z" fill="#E5E5E5"/><path d="M19.41 17.163l2.247 1.072-.464 2.516-1.784-3.588z" fill="#F2F2F2"/><path d="M6.432 19.36L4.216 21.76l-.103-3.556 2.319 1.157z" fill="#BFBFBF"/><path d="M6.432 19.36l1.113 2.526-3.33-.127 2.217-2.399z" fill="#A5A5A5"/><path d="M18.688 8.735l1.01 2.887-2.34-.976 1.33-1.91z" fill="#E5E5E5"/><path d="M16.956 7.196l1.732 1.54-1.33 1.91-.402-3.45z" fill="#F2F2F2"/><path d="M13.637 22.682l3.525 1.762-2.649.255-.876-2.017z" fill="#A5A5A5"/><path d="M13.637 22.682l.876 2.017-3.051-.53 2.175-1.487z" fill="#BFBFBF"/><path d="M6.432 19.36l-2.32-1.157 1.598-1.486.722 2.643z" fill="#999"/><path d="M5.226 14.074l.484 2.643-3.247-1.496 2.763-1.147z" fill="#B2B2B2"/><path d="M5.71 16.717l-1.597 1.486-1.65-2.982 3.247 1.496z" fill="#A5A5A5"/><path d="M11.565 6.644l.722-.658 1.752 1.635-2.474-.977z" fill="#CCC"/><path d="M9.937 6.103l2.35-.117-.721.658-1.629-.541z" fill="#D8D8D8"/><path d="M9.267 7.982l.67-1.879 1.629.541-2.3 1.338z" fill="#F2F2F2"/><path d="M19.41 17.163l1.782 3.588-3.432-1.55 1.65-2.038z" fill="#E5E5E5"/><path d="M17.76 19.2l3.432 1.55-2.556 1.274-.876-2.823z" fill="#CCC"/><path d="M15.76 21.143l2.877.881-1.474 2.42-1.402-3.3z" fill="#CCC"/><path d="M15.76 21.143l1.402 3.301-3.525-1.762 2.123-1.539z" fill="#B2B2B2"/><path d="M17.76 19.2l.877 2.824-2.876-.88 2-1.943z" fill="#BFBFBF"/><path d="M9.267 7.982l2.299-1.338-1.907 3.514-.392-2.176z" fill="#E5E5E5"/><path d="M9.267 7.982l.392 2.176-2.577.297 2.185-2.473z" fill="#CCC"/><path d="M14.039 7.62l2.917-.424-2.134 2.802-.783-2.377z" fill="#D8D8D8"/><path d="M16.956 7.196l.402 3.45-2.536-.648 2.134-2.802z" fill="#E5E5E5"/><path d="M11.565 6.644l.587 3.121-2.494.393 1.907-3.514z" fill="#BFBFBF"/><path d="M11.565 6.644l2.474.977-1.886 2.144-.588-3.12z" fill="#E5E5E5"/><path d="M14.04 7.62l.783 2.378-2.67-.233 1.886-2.144z" fill="#CCC"/><path d="M9.163 20.093l-1.618 1.793-1.113-2.526 2.731.733z" fill="#999"/><path d="M15.76 21.143l-2.123 1.54-1.278-2.177 3.402.637z" fill="#A5A5A5"/><path d="M7.618 15.072L5.71 16.717l-.485-2.643 2.392.998z" fill="#999"/><path d="M9.947 23.064l1.515 1.104-2.732-.148 1.217-.956zM9.164 20.092l3.195.414-2.412 2.558-.783-2.972z" fill="#BFBFBF"/><path d="M12.358 20.506l1.278 2.176-3.69.382 2.412-2.558z" fill="#999"/><path d="M9.946 23.064l3.69-.382-2.175 1.486-1.515-1.104z" fill="#B2B2B2"/><path d="M9.163 20.092l.784 2.972-2.402-1.178 1.618-1.794z" fill="#A5A5A5"/><path d="M9.947 23.064l-1.217.956-1.185-2.134 2.402 1.178z" fill="#B2B2B2"/><path d="M19.41 17.163l-1.65 2.038-1.237-3.227 2.887 1.189z" fill="#CCC"/><path d="M12.152 9.765l-2.412 2.78-.082-2.387 2.494-.393z" fill="#B2B2B2"/><path d="M17.358 10.646l-1.897 2.176-.639-2.823 2.536.647z" fill="#D8D8D8"/><path d="M19.698 11.622l1.03 3.408-1.7-1.582.67-1.826zM17.358 10.646l1.67 2.802-3.567-.626 1.897-2.176z" fill="#E5E5E5"/><path d="M17.358 10.646l2.34.976-.67 1.826-1.67-2.802z" fill="#D8D8D8"/><path d="M19.028 13.448l.382 3.715-2.887-1.189 2.505-2.526z" fill="#F2F2F2"/><path d="M19.028 13.448l1.7 1.582-1.319 2.133-.381-3.715zM15.461 12.822l3.567.626-2.505 2.526-1.062-3.152z" fill="#D8D8D8"/><path d="M6.535 12.387l3.205.159-2.123 2.526-1.082-2.685z" fill="#BFBFBF"/><path d="M9.658 10.158l.082 2.388-3.205-.16 3.123-2.228z" fill="#D8D8D8"/><path d="M6.535 12.387l1.083 2.685-2.392-.998 1.31-1.687z" fill="#A5A5A5"/><path d="M6.534 12.387l-1.309 1.687-.36-2.24 1.67.553z" fill="#B2B2B2"/><path d="M7.08 10.455l-.546 1.932-1.67-.552 2.217-1.38z" fill="#F2F2F2"/><path d="M7.08 10.455l2.578-.297-3.123 2.229.546-1.932z" fill="#E5E5E5"/><path d="M11.308 17.874l1.051 2.632-3.195-.413 2.144-2.219z" fill="#A5A5A5"/><path d="M9.74 12.546l.64 2.664-2.763-.138 2.123-2.526zM13.42 15.274l-2.113 2.6-.927-2.664 3.04.064z" fill="#999"/><path d="M15.461 12.822l1.062 3.152-3.102-.7 2.04-2.452z" fill="#CCC"/><path d="M7.802 17.959l3.505-.085-2.144 2.219-1.36-2.134z" fill="#BFBFBF"/><path d="M7.803 17.96l1.36 2.133-2.731-.733 1.37-1.4zM7.617 15.072l.186 2.887-2.093-1.242 1.907-1.645z" fill="#A5A5A5"/><path d="M7.803 17.96l-1.371 1.4-.722-2.643 2.093 1.242z" fill="#BFBFBF"/><path d="M10.38 15.21l.927 2.664-3.505.085 2.577-2.749z" fill="#A5A5A5"/><path d="M7.617 15.072l2.762.138-2.577 2.75-.185-2.888z" fill="#B2B2B2"/><path d="M12.42 11.877l3.041.945-2.04 2.452-1-3.397z" fill="#D8D8D8"/><path d="M14.822 9.998l.64 2.824-3.041-.945 2.401-1.879z" fill="#F2F2F2"/><path d="M12.153 9.765l2.67.233-2.402 1.88-.268-2.113z" fill="#BFBFBF"/><path d="M12.42 11.877l1 3.397-3.04-.064 2.04-3.333z" fill="#A5A5A5"/><path d="M12.152 9.765l.268 2.112-2.68.669 2.412-2.781z" fill="#F2F2F2"/><path d="M9.74 12.546l2.68-.669-2.04 3.333-.64-2.664z" fill="#B2B2B2"/><path d="M16.523 15.974l1.237 3.227-3.03-.541 1.793-2.686z" fill="#F2F2F2"/><path d="M14.73 18.66l3.03.54-2 1.943-1.03-2.483z" fill="#D8D8D8"/><path d="M13.42 15.274l1.31 3.386-3.422-.786 2.113-2.6z" fill="#B2B2B2"/><path d="M13.42 15.274l3.103.7-1.793 2.686-1.31-3.386z" fill="#D8D8D8"/><path d="M14.73 18.66l1.03 2.483-3.401-.637 2.37-1.846z" fill="#BFBFBF"/><path d="M11.308 17.874l3.422.786-2.37 1.846-1.052-2.632z" fill="#999"/><path d="M2.598 3.11l2.391 1.05.886 2.208L2.598 3.11z" fill="#727272"/><path d="M5.36 3.237l.515 3.131-.886-2.207-.825-1.868 1.196.944z" fill="#A5A5A5"/><path d="M.845 2.293l1.752.817L4.99 4.16l-.825-1.867H.845z" fill="#8C8C8C"/><path d="M2.731.955l1.433 1.338H.845L2.731.955z" fill="#B2B2B2"/><path d="M0 .955h2.732L.845 2.293 0 .955z" fill="#BFBFBF"/><path d="M2.732.955l1.845.138L2.907 0 0 .955h2.732z" fill="#8C8C8C"/><path d="M5.453 1.093h-.876L2.907 0l2.546 1.093z" fill="#A5A5A5"/><path d="M5.36 3.237l-.783-2.144L2.732.955l1.432 1.338 1.196.944zM6.38 6.21L5.36 3.236l.516 3.131.505-.159z" fill="#727272"/><path d="M5.453 1.093L6.38 6.21 5.36 3.237l-.784-2.144h.876z" fill="#8C8C8C"/></g></svg></svg>