<svg
   xmlns="http://www.w3.org/2000/svg"
   viewBox="0 0 11249.572 11249.573"
   version="1.1"
   id="svg3346">
  <metadata
     id="metadata3352">
    <rdf:RDF>
      <cc:Work
         rdf:about="">
        <dc:format>image/svg+xml</dc:format>
        <dc:type
           rdf:resource="http://purl.org/dc/dcmitype/StillImage" />
        <dc:title></dc:title>
      </cc:Work>
    </rdf:RDF>
  </metadata>
  <defs
     id="defs3350" />
  <g
     transform="translate(-0.29000337,-0.13715435)"
     id="g3356">
    <path class="logoSvg"
       id="path3358"
       d="m 5529.375,11248.665 c -755.6,-12.649 -1505.1336,-178.879 -2195,-486.803 C 3198.5786,10701.249 3053.4208,10629.34 2925,10559.064 2377.2019,10259.291 1883.8164,9870.8346 1462.3419,9407.472 1164.8985,9080.4675 904.03468,8714.4115 690.9358,8325 657.29259,8263.5213 632.50915,8215.9519 594.55155,8140 548.05109,8046.9541 526.06016,8000.586 488.13759,7915.625 130.13654,7113.5665 -34.963649,6235.68 6.9249044,5356.875 40.180992,4659.1756 203.85,3971.2872 488.13759,3334.375 548.75066,3198.5786 620.65974,3053.4208 690.9358,2925 990.70915,2377.2019 1379.1654,1883.8164 1842.528,1462.3419 2169.5325,1164.8985 2535.5885,904.03468 2925,690.9358 c 61.4788,-33.64321 109.0481,-58.42665 185,-96.38425 93.0459,-46.50046 139.414,-68.49139 224.375,-106.41396 826.7367,-369.01626 1734.172,-532.989901 2638.75,-476.82237 670.8529,41.654951 1330.1167,203.4834 1942.5,476.82237 135.7964,60.61307 280.9542,132.52215 409.375,202.79821 547.7981,299.77335 1041.1836,688.2297 1462.6581,1151.5922 297.4439,327.0045 558.3069,693.0605 771.4059,1082.472 33.643,61.4788 58.427,109.0481 96.385,185 46.5,93.0459 68.491,139.414 106.413,224.375 284.288,636.9123 447.957,1324.8006 481.213,2022.5 9.752,204.5915 8.272,412.3236 -4.39,616.25 -41.655,670.8529 -203.484,1330.1167 -476.823,1942.5 -60.613,135.7964 -132.522,280.9542 -202.798,409.375 -299.773,547.7981 -688.2294,1041.1836 -1151.592,1462.6581 -327.0045,297.4439 -693.0605,558.3069 -1082.472,771.4059 -61.4787,33.643 -109.0481,58.427 -185,96.385 -93.0459,46.5 -139.414,68.491 -224.375,106.413 -612.5691,273.422 -1272.3451,435.335 -1943.125,476.855 -150.1516,9.294 -291.9947,12.478 -443.125,9.948 z M 8468.0365,8117.7851 c 57.6872,-6.1339 105.8614,-14.5637 155.0885,-27.1386 154.5218,-39.4723 292.0339,-112.1966 415,-219.4761 20.9049,-18.2382 68.5573,-65.8905 86.7954,-86.7954 78.9075,-90.4455 138.9089,-188.3933 180.7126,-295 34.9339,-89.0871 55.1029,-173.2877 65.8934,-275.0885 l 2.773,-26.1615 0.363,-904.0625 0.363,-904.0625 -5.3251,9e-4 c -2.9289,6e-4 -29.5128,1.107 -59.0753,2.4588 -484.2076,22.142 -897.736,32.9388 -1261.875,32.9462 -277.8035,0 -473.3054,-5.0983 -663.75,-17.3285 -92.944,-5.9689 -209.1263,-16.4213 -265.4538,-23.8818 -5.9782,-0.7919 -6.0631,-0.7556 -5.1287,2.1871 26.8296,84.4948 43.4206,152.6813 56.7161,233.0943 27.6881,167.4607 27.6881,341.0852 0,508.546 -57.1259,345.504 -226.1364,659.2781 -483.0367,896.7754 -354.2689,327.5117 -841.7824,473.7192 -1317.3699,395.0852 -159.0385,-26.2955 -308.211,-74.9657 -451.977,-147.4656 -200.0049,-100.8608 -376.5598,-244.0855 -516.8676,-419.293 -289.8338,-361.9259 -404.4625,-833.74 -313.0518,-1288.5264 35.5106,-176.6717 102.0334,-347.454 195.5766,-502.0985 112.737,-186.3754 264.2073,-348.1082 443.4465,-473.4915 l 19.7288,-13.8007 -7.8538,-0.7093 c -8.1551,-0.7364 -113.1707,-3.5824 -212.8537,-5.7685 -382.9745,-8.3989 -887.2697,-7.4839 -1400.625,2.5414 -242.1668,4.7292 -532.8507,12.0046 -723.75,18.1143 -12.0312,0.3849 -66.0312,2.0897 -120,3.7883 -53.9687,1.6987 -122.3125,3.9309 -151.875,4.9606 -29.5625,1.0299 -85.8125,2.9783 -125,4.3299 -103.6491,3.5749 -108.9863,3.7769 -120.3214,4.5539 l -10.3215,0.7074 0.3554,1295.1996 0.3554,1295.1995 2.7769,26.1615 c 10.8146,101.8861 30.9657,186.0074 65.8972,275.0885 25.4315,64.8546 56.5699,124.5277 96.2099,184.375 39.2001,59.183 76.1511,104.3464 126.864,155.0591 37.9834,37.9834 65.637,62.0578 106.9341,93.0934 147.5721,110.9035 324.3104,178.849 508.75,195.5846 15.125,1.3724 30.875,2.6751 35,2.8948 4.125,0.2197 1271.1563,0.3512 2815.625,0.2922 l 2808.125,-0.1075 26.1615,-2.7816 z M 5670.625,6804.9694 c 186.3256,-9.946 359.996,-71.3028 509.468,-179.992 65.2889,-47.4752 131.0401,-110.5039 181.5724,-174.054 114.2712,-143.7093 183.873,-315.7737 201.3644,-497.7984 21.9558,-228.4849 -40.8864,-457.5531 -176.8024,-644.468 -47.4751,-65.2889 -110.5039,-131.0401 -174.054,-181.5724 -191.9186,-152.6052 -434.0371,-224.6681 -676.5484,-201.3643 -196.3516,18.8681 -381.6419,98.7455 -530.9234,228.8773 -20.9302,18.2454 -61.5398,58.4364 -81.2396,80.4024 -175.5059,195.6949 -261.5784,457.0604 -236.4917,718.125 18.8681,196.3516 98.7455,381.6419 228.8773,530.9234 18.2454,20.9302 58.4364,61.5399 80.4024,81.2396 149.7865,134.3336 338.7325,217.1092 540,236.5693 43.5474,4.2105 92.5414,5.3452 134.375,3.1121 z M 8300,5102.515 c 265.0051,-3.8661 578.0063,-13.112 868.75,-25.6623 23.7188,-1.0238 75.75,-3.2682 115.625,-4.9874 39.875,-1.7192 76.5883,-3.4537 81.585,-3.8543 l 9.0849,-0.7285 -0.3828,-502.7037 -0.3827,-502.7038 -2.763,-26.1615 c -6.0593,-57.3721 -14.5243,-105.7802 -27.1199,-155.0885 -39.4722,-154.5217 -112.1966,-292.0339 -219.4761,-415 -18.2381,-20.9049 -65.8905,-68.5572 -86.7954,-86.7954 -90.4455,-78.9075 -188.3933,-138.9088 -295,-180.7126 -89.952,-35.273 -176.4481,-55.8682 -276.875,-65.9254 l -28.125,-2.8166 -2813.125,0 -2813.125,0 -28.125,2.8166 c -171.4111,17.1659 -322.6345,70.3228 -461.25,162.1353 -59.183,39.2001 -104.3464,76.1511 -155.0591,126.864 -37.9834,37.9834 -62.0578,65.637 -93.0934,106.9341 -99.7324,132.7074 -165.6366,291.1476 -189.3004,455.096 -8.8086,61.0284 -9.1277,67.286 -9.703,190.2165 l -0.522,111.5625 7.9014,-5e-4 c 4.3459,-4e-4 22.2453,-0.5642 39.7765,-1.2531 44.6648,-1.755 194.1667,-6.91 307.5,-10.6029 1176.04,-38.3201 2099.77,-41.8672 2762.5,-10.6079 187.3032,8.8347 335.4651,18.8535 490.5646,33.1727 26.0918,2.4087 48.873,4.0875 50.625,3.7303 1.752,-0.3571 23.1541,-1.2483 47.5604,-1.9806 63.159,-1.8949 137.3307,0.7078 198.75,6.974 194.9111,19.8855 377.5615,73.1185 551.25,160.6604 63.1636,31.8356 88.2974,46.1394 138.5824,78.8685 100.7926,65.6029 175.9002,125.818 256.841,205.9137 81.6268,80.7748 148.1646,162.1868 211.1491,258.3508 l 15.6214,23.8504 26.0905,5.199 c 186.264,37.1166 457.3273,58.5697 822.9656,65.1332 78.5606,1.4101 403.385,1.4801 497.5,0.1075 z m -733.75,-545.179 c -30.0109,-1.6471 -60.4654,-7.5854 -91.875,-17.9144 -122.4909,-40.2808 -214.3279,-140.3417 -244.4099,-266.2966 -7.3449,-30.7534 -9.2021,-47.909 -9.2021,-85 0,-28.7817 0.4136,-36.4181 2.8099,-51.875 9.2162,-59.4504 28.2366,-108.1386 61.6685,-157.859 51.5341,-76.6422 137.3953,-133.6705 229.7586,-152.6035 36.6264,-7.5077 7.7249,-7.0734 470.625,-7.0734 374.9712,0 425.5486,0.2228 439.375,1.9353 155.1625,19.2181 280.0491,130.755 316.2849,282.4756 7.3448,30.7534 9.2021,47.909 9.2021,85 0,28.7817 -0.4136,36.4181 -2.8099,51.875 -9.2162,59.4504 -28.2366,108.1386 -61.6685,157.859 -51.5339,76.6418 -137.3356,133.6325 -229.7586,152.6088 -36.6676,7.5285 -9.8221,7.099 -461.875,7.3905 -227.5625,0.1467 -420.2188,-0.089 -428.125,-0.5223 z"
        />
  </g>
</svg>
