<?xml version="1.0" encoding="utf-8"?>
<!-- Generator: Adobe Illustrator 21.1.0, SVG Export Plug-In . SVG Version: 6.00 Build 0)  -->
<svg version="1.1" id="Layer_1" xmlns="http://www.w3.org/2000/svg" xmlns:xlink="http://www.w3.org/1999/xlink" x="0px" y="0px"
	 viewBox="0 0 1920 498.7" style="enable-background:new 0 0 1920 498.7;" xml:space="preserve">
<style type="text/css">
	.st0{fill:#145C82;}
	.st1{font-family:'OpenSans';}
	.st2{font-size:378.3916px;}
	.st3{letter-spacing:-33.6;}
	.st4{fill:none;stroke:#ED2B2F;stroke-width:27.1899;stroke-miterlimit:10;}
	.st5{fill:#3BADEA;}
</style>
<g>
	<text transform="matrix(0.9819 0 -0.1895 0.9819 737.6469 397.6918)" class="st0 st1 st2 st3">express</text>
	<text transform="matrix(0.9819 0 -0.1895 0.9819 19.4281 397.6918)" class="st0 st1 st2 st3">ER</text>
	<g>
		<polyline class="st4" points="660,326.6 601.9,269 601.9,207.1 		"/>
		<g>
			<path class="st5" d="M601.9,158.2c29.7,0,57.6,11.6,78.6,32.5c21,21,32.5,48.9,32.5,78.6s-11.6,57.6-32.5,78.6
				c-21,21-48.9,32.5-78.6,32.5s-57.6-11.6-78.6-32.5c-21-21-32.5-48.9-32.5-78.6s11.6-57.6,32.5-78.6
				C544.3,169.8,572.2,158.2,601.9,158.2 M601.9,123.2c-80.7,0-146.1,65.4-146.1,146.1s65.4,146.1,146.1,146.1S748,350,748,269.3
				S682.6,123.2,601.9,123.2L601.9,123.2z"/>
		</g>
		<g>
			<path class="st5" d="M601.9,23.4c20.6,0,37.4,16.8,37.4,37.4s-16.8,37.4-37.4,37.4s-37.4-16.8-37.4-37.4S581.3,23.4,601.9,23.4
				 M601.9,11.7c-27.1,0-49.1,22-49.1,49.1c0,27.1,22,49.1,49.1,49.1s49.1-22,49.1-49.1C651,33.7,629,11.7,601.9,11.7L601.9,11.7z"
				/>
		</g>
		<rect x="589.8" y="78.8" class="st5" width="24.2" height="62.3"/>
		
			<rect x="693.7" y="123.7" transform="matrix(0.7431 0.6691 -0.6691 0.7431 283.6902 -433.8911)" class="st5" width="26.6" height="57.7"/>
		
			<rect x="483.4" y="123.7" transform="matrix(0.7431 -0.6691 0.6691 0.7431 25.4958 371.5659)" class="st5" width="26.6" height="57.7"/>
	</g>
</g>
</svg>
