<?xml version="1.0" encoding="utf-8"?>
<!-- Generator: Adobe Illustrator 21.1.0, SVG Export Plug-In . SVG Version: 6.00 Build 0)  -->
<svg version="1.1" id="Layer_1" xmlns="http://www.w3.org/2000/svg" xmlns:xlink="http://www.w3.org/1999/xlink" x="0px" y="0px"
	 viewBox="0 0 1840 475" style="enable-background:new 0 0 1840 475;" xml:space="preserve">
<style type="text/css">
	.st0{fill:#FFFFFF;}
</style>
<g>
	<path class="st0" d="M1818.1,331.8c-3.6,18.5-13.2,32.8-28.9,42.8c-15.7,10-36,15.1-61,15.1c-26.4,0-46.1-4.2-59.3-12.5l5.4-27.9
		c8.6,4.8,18.1,8.7,28.5,11.4c10.4,2.8,20.7,4.2,30.9,4.2c15.7,0,28.3-2.5,37.7-7.5c9.4-5,15.1-12.7,17.1-23
		c1.5-7.7-0.6-14.4-6.2-19.9c-5.7-5.5-17.5-12-35.5-19.5c-17.2-6.9-29.2-12.9-36-18.1c-6.8-5.1-11.5-11-14-17.5
		c-2.6-6.5-2.9-14.3-1.2-23.4c3.1-16.2,12.2-29,27.2-38.4c15-9.4,34-14.1,57-14.1c21.4,0,41.5,4.4,60.3,13.1l-15.4,24.5
		c-18.4-8.2-35.7-12.3-51.9-12.3c-14.3,0-25.5,2.2-33.6,6.7c-8.1,4.5-12.9,10.6-14.5,18.5c-1,5.3-0.5,9.9,1.5,13.6
		c2,3.8,5.7,7.3,11.1,10.7c5.4,3.4,16.1,8.3,32,14.7c21.9,8.6,36.2,17.2,42.8,25.9C1818.6,307.7,1820.6,318.6,1818.1,331.8z"/>
	<path class="st0" d="M797.3,389.7c-29.4,0-50.9-9-64.4-26.9c-13.5-17.9-17.2-42.8-11.1-74.6c6.2-32.1,19-57.5,38.4-76.4
		c19.4-18.9,42.4-28.3,69.1-28.3c24.9,0,43.1,8.2,54.4,24.6c11.4,16.4,14.4,38,9.3,64.9l-3.7,19.1h-137c-3.9,23.3-1.4,41.1,7.4,53.2
		c8.9,12.1,23.4,18.1,43.8,18.1c21.4,0,43.4-4.5,66.1-13.4l-5.2,26.9c-11.5,4.6-22.2,7.9-32.1,9.9
		C822.4,388.7,810.7,389.7,797.3,389.7z M824,208.8c-16,0-29.7,5.2-41.2,15.6c-11.5,10.4-19.9,24.8-25.1,43.2h104
		c3.7-19,2.2-33.5-4.3-43.6C850.9,213.9,839.7,208.8,824,208.8z"/>
	<path class="st0" d="M956.2,284.3l-50.4-97.1h34.3l37.7,76.2l67-76.2h33.9l-87.9,97.1l53.1,101.8h-34.1l-40.2-80.6l-71.8,80.6
		h-34.1L956.2,284.3z"/>
	<path class="st0" d="M1141.3,389.7c-12.9,0-24.3-2.4-34.1-7.2c-9.8-4.8-17.3-12.1-22.7-22h-2.2c-0.8,11.6-2.2,22.6-4.2,33
		l-15.8,81.8h-30.1l55.6-288.1h24.5l-1.1,27.2h1.5c9.8-10.9,20.4-18.7,31.6-23.6c11.2-4.8,23.5-7.3,36.8-7.3c26.4,0,45,9,55.8,27
		c10.9,18,13.1,43.3,6.9,75.8c-6.3,32.7-18.5,58-36.5,76.1C1189.2,380.7,1167.2,389.7,1141.3,389.7z M1171.8,209.2
		c-20.3,0-36.1,5.6-47.3,16.9c-11.2,11.2-19.4,29.2-24.3,53.7l-1.3,6.7c-5.4,27.9-4.6,47.9,2.4,60c7,12,20.8,18.1,41.3,18.1
		c17.2,0,32-7,44.4-20.9c12.4-13.9,21-33.1,25.7-57.5c4.8-24.8,3.6-43.8-3.6-57.1C1201.9,215.8,1189.5,209.2,1171.8,209.2z"/>
	<path class="st0" d="M1373.2,183.6c8.8,0,16.6,0.7,23.3,2.2l-9.6,27.9c-7.9-1.8-15-2.7-21.2-2.7c-16.1,0-31.1,6.5-45.1,19.6
		c-14,13.1-22.8,29.3-26.6,48.8l-20.6,106.7h-30.1l38.4-198.9h24.9l-3.7,36.8h1.5c9.9-12.9,20.7-22.9,32.4-29.9
		C1348.6,187.1,1360.7,183.6,1373.2,183.6z"/>
	<path class="st0" d="M1444.5,389.7c-29.4,0-50.9-9-64.4-26.9c-13.5-17.9-17.2-42.8-11.1-74.6c6.2-32.1,19-57.5,38.4-76.4
		c19.4-18.9,42.4-28.3,69.1-28.3c24.9,0,43.1,8.2,54.4,24.6c11.4,16.4,14.4,38,9.3,64.9l-3.7,19.1h-137c-3.9,23.3-1.4,41.1,7.4,53.2
		c8.9,12.1,23.4,18.1,43.8,18.1c21.4,0,43.4-4.5,66.1-13.4l-5.2,26.9c-11.5,4.6-22.2,7.9-32.1,9.9
		C1469.6,388.7,1458,389.7,1444.5,389.7z M1471.3,208.8c-16,0-29.7,5.2-41.2,15.6c-11.5,10.4-19.9,24.8-25.1,43.2h104
		c3.7-19,2.2-33.5-4.3-43.6C1498.1,213.9,1487,208.8,1471.3,208.8z"/>
	<path class="st0" d="M1674.6,331.8c-3.6,18.5-13.2,32.8-28.9,42.8c-15.7,10-36,15.1-61,15.1c-26.4,0-46.1-4.2-59.3-12.5l5.4-27.9
		c8.6,4.8,18.1,8.7,28.5,11.4c10.4,2.8,20.7,4.2,30.9,4.2c15.7,0,28.3-2.5,37.7-7.5c9.4-5,15.1-12.7,17.1-23
		c1.5-7.7-0.6-14.4-6.2-19.9c-5.7-5.5-17.5-12-35.5-19.5c-17.2-6.9-29.2-12.9-36-18.1c-6.8-5.1-11.5-11-14-17.5
		c-2.6-6.5-2.9-14.3-1.2-23.4c3.1-16.2,12.2-29,27.2-38.4c15-9.4,34-14.1,57-14.1c21.4,0,41.5,4.4,60.3,13.1l-15.4,24.5
		c-18.4-8.2-35.7-12.3-51.9-12.3c-14.3,0-25.5,2.2-33.6,6.7c-8.1,4.5-12.9,10.6-14.5,18.5c-1,5.3-0.5,9.9,1.5,13.6
		c2,3.8,5.7,7.3,11.1,10.7c5.4,3.4,16.1,8.3,32,14.7c21.9,8.6,36.2,17.2,42.8,25.9C1675.2,307.7,1677.2,318.6,1674.6,331.8z"/>
	<path class="st0" d="M148.1,386.1H0.2l51.2-265.3h147.9l-5.3,27.4h-117l-16.5,85.5h110l-5.3,27.2h-110l-18.8,97.6h117L148.1,386.1z
		"/>
	<path class="st0" d="M225.2,275.8l-21.3,110.3H173l51.2-265.3H297c32.5,0,55.4,6.2,68.5,18.7c13.1,12.5,17.3,31.2,12.5,56.2
		c-6.8,35.1-29.1,58.8-67.1,71.1l49,119.2h-36.5l-42.9-110.3H225.2z M230.3,249.3h42.3c21.8,0,38.6-4.3,50.4-13
		c11.8-8.6,19.4-21.6,22.7-38.9c3.4-17.5,0.7-30.2-8.2-37.9c-8.8-7.7-24.7-11.6-47.6-11.6h-40.1L230.3,249.3z"/>
	<polygon class="st0" points="594.8,324.6 532.6,263 532.6,195.4 559.8,195.4 559.8,251.7 614,305.3 	"/>
	<path class="st0" d="M546.2,146.6c29.7,0,57.6,11.6,78.6,32.5c21,21,32.5,48.9,32.5,78.6c0,29.7-11.6,57.6-32.5,78.6
		c-21,21-48.9,32.5-78.6,32.5c-29.7,0-57.6-11.6-78.6-32.5c-21-21-32.5-48.9-32.5-78.6c0-29.7,11.6-57.6,32.5-78.6
		C488.6,158.1,516.6,146.6,546.2,146.6 M546.2,111.6c-80.7,0-146.1,65.4-146.1,146.1s65.4,146.1,146.1,146.1s146.1-65.4,146.1-146.1
		S626.9,111.6,546.2,111.6L546.2,111.6z"/>
	<path class="st0" d="M546.2,11.8c20.6,0,37.4,16.8,37.4,37.4c0,20.6-16.8,37.4-37.4,37.4c-20.6,0-37.4-16.8-37.4-37.4
		C508.9,28.5,525.6,11.8,546.2,11.8 M546.2,0c-27.1,0-49.1,22-49.1,49.1c0,27.1,22,49.1,49.1,49.1c27.1,0,49.1-22,49.1-49.1
		C595.4,22,573.4,0,546.2,0L546.2,0z"/>
	<rect x="534.2" y="67.1" class="st0" width="24.2" height="62.3"/>
	
		<rect x="638.1" y="112" transform="matrix(0.7431 0.6691 -0.6691 0.7431 261.6085 -399.6702)" class="st0" width="26.6" height="57.7"/>
	
		<rect x="427.8" y="112" transform="matrix(0.7431 -0.6691 0.6691 0.7431 19.0014 331.3436)" class="st0" width="26.6" height="57.7"/>
</g>
</svg>
